# Blender 4.5.6 LTS
# www.blender.org
mtllib PuenteRotoSeparado.mtl
o Cube.013
v 2.876054 0.075858 2.981260
v 2.876054 -0.075858 2.981260
v -2.541203 0.075858 2.981260
v -2.541203 -0.075858 2.981260
v 2.876054 0.075858 1.748355
v 2.876054 -0.075858 1.748355
v -2.541203 0.075858 1.748355
v -2.541203 -0.075858 1.748355
v -2.648213 0.075858 1.929507
v -2.541203 0.075858 2.364808
v -2.731840 0.081198 2.673034
v -2.731840 -0.081198 2.673034
v -2.541203 -0.075858 2.364808
v -2.648213 -0.075858 1.929507
v 2.805854 0.081198 2.579400
v 2.976376 0.075858 2.364808
v 2.695473 0.075858 1.962948
v 2.695473 -0.075858 1.962948
v 2.976376 -0.075858 2.364808
v 2.805854 -0.081198 2.579400
v 2.933277 0.065264 1.594995
v 2.929737 -0.090161 1.598997
v 2.908454 0.034101 0.362734
v 2.904914 -0.121324 0.366736
v 2.866012 0.061994 1.408496
v 2.864770 0.039508 0.859803
v 3.013221 0.033166 0.588735
v 3.009780 -0.117896 0.592625
v 2.861422 -0.107540 0.863589
v 2.862473 -0.093431 1.412498
v 0.096040 0.106714 1.020944
v 0.297776 0.094021 0.630560
v 0.294335 -0.057041 0.634450
v 0.092690 -0.040334 1.024730
v 0.225900 0.128287 1.647940
v 0.222360 -0.027138 1.651941
v 0.207120 0.095575 0.441064
v 0.203580 -0.059850 0.445065
v 0.215096 0.123272 1.443618
v 0.211557 -0.032153 1.447620
v 2.876054 0.075858 -0.971440
v 2.876054 -0.077286 -0.971440
v 2.876054 0.075858 -2.204345
v 2.876054 -0.077286 -2.204345
v 2.946305 0.071159 -1.246225
v 2.869366 0.075858 -1.896119
v 2.869366 -0.077286 -1.896119
v 2.946305 -0.077286 -1.246225
v 0.167426 0.016472 -0.971440
v 0.167426 -0.136673 -0.971440
v 0.167426 0.016472 -2.204345
v 0.167426 -0.136673 -2.204345
v 0.177458 -0.136673 -1.902806
v 0.207555 -0.136673 -1.309763
v 0.207555 0.011772 -1.309763
v 0.177458 0.016472 -1.902806
v -2.528523 0.081198 1.703598
v -2.528523 -0.074319 1.703598
v -2.552829 0.081198 0.470933
v -2.552829 -0.074319 0.470933
v -2.476230 0.072523 0.623850
v -2.719375 0.077005 1.184441
v -2.482759 0.073988 1.481372
v -2.482759 -0.074319 1.481372
v -2.719375 -0.074319 1.184441
v -2.476230 -0.074319 0.623850
v 0.050142 0.054668 1.022799
v 0.245971 0.050185 0.606966
v 0.245971 -0.096657 0.606966
v 0.050142 -0.096657 1.022799
v 0.179579 0.058860 1.650198
v 0.179579 -0.096657 1.650198
v 0.155273 0.058860 0.417533
v 0.155273 -0.096657 0.417533
v 0.168859 0.051650 1.445810
v 0.168859 -0.096657 1.445810
v -2.606722 0.061431 -0.995167
v -2.601771 -0.091450 -0.987652
v -2.587548 0.001530 -2.226466
v -2.582597 -0.151350 -2.218952
v -2.564734 -0.003767 -1.930619
v -2.590644 0.047567 -1.396626
v -2.585521 -0.110643 -1.388849
v -2.560447 -0.136141 -1.924112
v 0.100163 0.150944 -0.957370
v 0.105114 -0.001937 -0.949855
v 0.119337 0.091043 -2.188669
v 0.124288 -0.061837 -2.181155
v 0.129624 -0.046855 -1.879869
v 0.150478 -0.017048 -1.287177
v 0.145355 0.141162 -1.294954
v 0.125337 0.085519 -1.886375
v -2.145294 1.061242 2.738030
v -2.160559 0.886654 2.692509
v -1.656863 1.053524 2.749249
v -1.672128 0.878936 2.703728
v -2.605216 1.189284 0.592811
v -2.620481 1.014696 0.547289
v -2.003015 1.181566 0.477618
v -2.018281 1.006978 0.432097
v -2.023186 1.059312 2.860925
v -1.923200 1.057383 2.693075
v -1.794772 1.055454 2.645316
v -1.810037 0.880866 2.599794
v -1.938466 0.882795 2.647554
v -2.038451 0.884724 2.815405
v -2.485134 1.020424 0.437511
v -2.386680 1.010004 0.521632
v -2.155432 1.003987 0.511716
v -2.140167 1.178575 0.557237
v -2.371415 1.184592 0.567153
v -2.469868 1.195012 0.483032
v 2.188003 1.481899 2.640947
v 2.173881 1.306470 2.676212
v 2.789196 1.464932 2.604736
v 2.775073 1.289504 2.640002
v 1.878998 1.091975 -1.373590
v 2.170299 1.346620 0.733505
v 2.156177 1.171192 0.768771
v 1.864877 0.916547 -1.338325
v 2.782869 1.329654 0.731425
v 2.525461 1.082997 -1.245612
v 2.511339 0.907569 -1.210346
v 2.768747 1.154225 0.766690
v 2.341145 1.477657 2.712481
v 2.448780 1.473415 2.605776
v 2.628468 1.469174 2.540786
v 2.614346 1.293745 2.576052
v 2.434658 1.297987 2.641041
v 2.327023 1.302229 2.747747
v 1.986648 0.923590 -1.186869
v 2.144567 0.914008 -1.263340
v 2.309734 0.917989 -1.139151
v 2.309320 1.166950 0.768250
v 2.462462 1.162709 0.767731
v 2.615605 1.158467 0.767210
v 2.323857 1.093417 -1.174416
v 2.158688 1.089436 -1.298605
v 2.000770 1.099018 -1.222134
v 2.629726 1.333895 0.731945
v 2.476584 1.338137 0.732465
v 2.323441 1.342378 0.732985
v -2.256838 0.132737 1.869394
v -2.238773 1.069557 1.755169
v -2.253872 0.100916 1.595110
v -2.235807 1.037736 1.480885
v -1.980760 0.128088 1.872920
v -1.962695 1.064908 1.758695
v -1.977794 0.096268 1.598635
v -1.959728 1.033087 1.484410
v -2.340959 0.154783 -2.198540
v -2.217765 1.293509 -2.217992
v -2.262937 0.142439 -2.463140
v -2.140460 1.281278 -2.480158
v -2.077721 0.127652 -2.119654
v -1.954527 1.266378 -2.139106
v -1.999699 0.115307 -2.384254
v -1.877222 1.254147 -2.401273
v 2.337571 0.131472 1.814972
v 2.337571 1.245254 1.814972
v 2.337571 0.131472 1.538832
v 2.337571 1.245254 1.538832
v 2.613712 0.131472 1.814972
v 2.578150 1.236364 1.814972
v 2.613712 0.131472 1.538832
v 2.578150 1.236364 1.538832
v 2.337571 0.131472 -2.161444
v 2.339567 0.911241 -2.253922
v 2.337571 0.131472 -2.437584
v 2.343042 0.853740 -2.521389
v 2.613712 0.131472 -2.161444
v 2.580186 0.904971 -2.249448
v 2.613712 0.131472 -2.437584
v 2.583661 0.847470 -2.516915
v 2.337571 0.131472 -2.368549
v 2.337571 0.131472 -2.299514
v 2.337571 0.131472 -2.230479
v 2.341128 0.841022 -2.332809
v 2.341762 0.870585 -2.418868
v 2.342405 0.837209 -2.447225
v 2.613712 0.131472 -2.230479
v 2.613712 0.131472 -2.299514
v 2.613712 0.131472 -2.368549
v 2.583025 0.830938 -2.442751
v 2.582381 0.864314 -2.414394
v 2.581747 0.834751 -2.328335
v 2.544677 0.131472 -2.437584
v 2.475641 0.131472 -2.437584
v 2.406606 0.131472 -2.437584
v 2.411695 0.902858 -2.531056
v 2.462029 0.857421 -2.520635
v 2.529249 0.927633 -2.534856
v 2.406606 0.131472 -2.161444
v 2.475641 0.131472 -2.161444
v 2.544677 0.131472 -2.161444
v 2.525774 0.985134 -2.267389
v 2.458555 0.914922 -2.253168
v 2.408220 0.960359 -2.263590
v 2.411058 0.886326 -2.456893
v 2.461392 0.840889 -2.446471
v 2.528612 0.911101 -2.460692
v 2.410415 0.919702 -2.428536
v 2.460749 0.874265 -2.418114
v 2.527969 0.944477 -2.432335
v 2.409781 0.890139 -2.342477
v 2.460115 0.844703 -2.332055
v 2.527335 0.914915 -2.346276
v 2.175730 0.163071 2.326847
v 2.175730 0.086481 2.326847
v 2.369072 0.163071 0.976426
v 2.369072 0.086481 0.976426
v 2.650204 0.163071 2.394778
v 2.650204 0.086481 2.394778
v 2.740016 0.163071 1.174153
v 2.740016 0.086481 1.174153
v 2.093409 0.163071 -1.659884
v 2.093409 0.086481 -1.659884
v 2.399648 0.163071 -2.989258
v 2.399648 0.086481 -2.989258
v 2.560488 0.163071 -1.552286
v 2.560488 0.086481 -1.552286
v 2.866728 0.163071 -2.881660
v 2.866728 0.086481 -2.881660
v -2.354418 0.163071 2.361083
v -2.354418 0.086481 2.361083
v -2.354418 0.163071 1.048006
v -2.354418 0.086481 1.048006
v -1.875106 0.163071 2.361083
v -1.875106 0.086481 2.361083
v -1.875106 0.163071 0.996891
v -1.875106 0.086481 0.996891
v -2.471062 0.163071 -1.647656
v -2.471062 0.086481 -1.647656
v -2.229017 0.163071 -2.990203
v -2.229017 0.086481 -2.990203
v -1.999355 0.163071 -1.562613
v -1.999355 0.086481 -1.562613
v -1.757309 0.163071 -2.905160
v -1.757309 0.086481 -2.905160
v 2.547240 0.163071 0.805806
v 2.547240 0.086481 0.805806
v 2.306143 0.163071 2.286706
v 2.306143 0.086481 2.286706
v -1.994934 0.163071 1.102507
v -2.114762 0.163071 0.956287
v -2.234590 0.163071 0.996891
v -2.234590 0.086481 0.996891
v -2.114762 0.086481 0.956287
v -1.994934 0.086481 1.102507
v -2.284714 0.163071 2.270409
v -2.167215 0.184777 2.343037
v -2.045057 0.163071 2.270409
v -2.045057 0.086481 2.270409
v -2.167215 0.108187 2.343037
v -2.284714 0.086481 2.270409
v 2.695805 0.163071 -2.835332
v 2.633188 0.163071 -2.935459
v 2.513591 0.163071 -3.076539
v 2.513591 0.086481 -3.076539
v 2.633188 0.086481 -2.935459
v 2.695805 0.086481 -2.835332
v 2.140100 0.163071 -1.546346
v 2.265047 0.163071 -1.661526
v 2.336351 0.163071 -1.468607
v 2.336351 0.086481 -1.468607
v 2.265047 0.086481 -1.661526
v 2.140100 0.086481 -1.546346
v -1.904066 0.163071 -2.809412
v -1.999472 0.163071 -2.912682
v -2.026876 0.163071 -3.089025
v -2.026876 0.086481 -3.089025
v -1.999472 0.086481 -2.912682
v -1.904066 0.086481 -2.809412
v -2.340677 0.163071 -1.660287
v -2.342196 0.163071 -1.538611
v -2.117120 0.163071 -1.619983
v -2.117120 0.086481 -1.619983
v -2.342196 0.086481 -1.538611
v -2.340677 0.086481 -1.660287
vn -0.0000 -0.0000 1.0000
vn -0.8610 -0.0000 -0.5086
vn -0.0000 -0.0000 -1.0000
vn 0.9851 -0.0000 -0.1721
vn -0.0000 1.0000 -0.0000
vn 0.0001 -0.9999 0.0150
vn -0.0000 -1.0000 -0.0000
vn -0.0002 -0.9998 -0.0205
vn 0.0001 0.9999 0.0150
vn -0.0002 0.9998 -0.0205
vn 0.7651 -0.0000 0.6439
vn 0.8196 -0.0000 -0.5729
vn 0.7829 -0.0000 0.6221
vn -0.8505 -0.0000 0.5260
vn -0.8505 -0.0000 -0.5260
vn -0.9711 -0.0000 0.2387
vn 0.0227 0.9996 -0.0167
vn 0.9404 -0.0301 -0.3387
vn -0.0228 -0.9994 0.0257
vn 0.9068 -0.0315 -0.4205
vn 0.8770 -0.0076 0.4805
vn 0.9997 -0.0228 -0.0013
vn 0.0201 0.0253 0.9995
vn -0.0220 -0.9994 0.0254
vn 0.0225 0.9997 -0.0046
vn -0.0223 -0.9993 0.0291
vn 0.0221 0.9988 -0.0429
vn 0.0228 0.9994 -0.0257
vn -0.0295 -0.0251 -0.9992
vn -0.9983 0.0241 0.0522
vn -0.9624 0.0289 0.2700
vn -0.8882 0.0084 -0.4593
vn -0.9015 0.0316 0.4316
vn 0.9688 -0.0000 0.2477
vn -0.0220 0.9998 0.0001
vn 0.0218 -0.9998 0.0039
vn 0.0220 -0.9998 -0.0001
vn -0.0220 0.9997 0.0095
vn -0.0216 0.9996 -0.0192
vn 0.9931 -0.0000 -0.1176
vn 0.9998 -0.0000 0.0217
vn 0.0219 -0.9998 -0.0019
vn -0.9994 -0.0000 0.0333
vn -0.8941 -0.0000 0.4479
vn -0.0197 -0.0000 -0.9998
vn 0.0078 0.9994 -0.0331
vn 0.0084 1.0000 0.0042
vn -0.0081 -1.0000 0.0040
vn -0.9794 -0.0000 -0.2017
vn -0.7821 -0.0000 0.6232
vn -0.9174 -0.0000 -0.3979
vn -0.0083 -1.0000 -0.0037
vn 0.0088 0.9989 0.0463
vn -0.0082 -1.0000 0.0040
vn 0.0197 -0.0000 0.9998
vn -0.0083 -1.0000 -0.0007
vn 0.0080 1.0000 -0.0056
vn 0.9986 -0.0000 -0.0524
vn 0.9628 -0.0000 -0.2702
vn 0.9047 -0.0000 0.4261
vn 0.9019 -0.0000 -0.4318
vn -0.0156 0.0486 0.9987
vn -0.9967 -0.0285 0.0763
vn -0.9984 -0.0345 -0.0451
vn -0.9987 -0.0342 -0.0388
vn 0.0323 -0.9983 0.0491
vn -0.0327 0.9989 -0.0347
vn -0.0310 0.9950 -0.0947
vn -0.0334 0.9992 0.0197
vn 0.0156 -0.0486 -0.9987
vn 0.9906 0.0385 0.1315
vn 0.9989 0.0305 -0.0367
vn 0.9993 0.0314 -0.0193
vn -0.9930 -0.0000 -0.1178
vn -0.9987 -0.0000 0.0507
vn 0.9871 -0.0464 -0.1530
vn -0.7051 -0.1205 0.6987
vn -0.0091 0.9982 0.0589
vn 0.0179 -0.9979 -0.0618
vn -0.9770 0.0303 0.2113
vn 0.0091 -0.9982 -0.0589
vn -0.0306 -0.9981 -0.0535
vn -0.0798 -0.9959 -0.0423
vn -0.0179 0.9979 0.0618
vn 0.0798 0.9959 0.0423
vn 0.0306 0.9981 0.0535
vn -0.5961 -0.1534 0.7881
vn 0.3326 -0.2651 0.9051
vn 0.8399 -0.2045 0.5027
vn 0.9968 -0.0798 0.0024
vn -0.4088 0.2114 0.8878
vn 0.0417 0.9964 -0.0733
vn -0.0438 -0.9966 0.0698
vn -0.0616 -0.9895 0.1306
vn 0.0154 0.9918 -0.1266
vn 0.9879 -0.1028 -0.1158
vn -0.9967 0.0809 0.0035
vn -0.9868 0.1043 0.1238
vn 0.0616 0.9895 -0.1306
vn 0.0133 0.9921 -0.1246
vn 0.0518 0.9900 -0.1312
vn -0.0154 -0.9918 0.1266
vn -0.0518 -0.9900 0.1312
vn -0.0133 -0.9921 0.1246
vn -0.0417 -0.9964 0.0733
vn -0.0110 -0.9973 0.0732
vn -0.0037 -0.9975 0.0700
vn 0.0438 0.9966 -0.0698
vn 0.0037 0.9975 -0.0700
vn 0.0110 0.9973 -0.0732
vn -0.3565 0.2116 0.9100
vn 0.3391 0.1591 0.9272
vn 0.7032 0.0853 0.7059
vn -0.3360 -0.1595 -0.9282
vn 0.5914 -0.2044 -0.7800
vn -0.4384 -0.1431 -0.8873
vn 0.7701 -0.1847 -0.6106
vn -0.4890 0.2599 -0.8327
vn -0.0348 0.2550 -0.9663
vn 0.6518 0.1375 -0.7458
vn -0.6165 0.2487 -0.7471
vn 0.0106 -0.1212 -0.9926
vn 0.9998 -0.0177 0.0129
vn -0.0106 0.1212 0.9926
vn 0.9533 -0.0983 0.2857
vn -0.9533 0.0983 -0.2857
vn -0.2823 0.0469 0.9582
vn 0.2825 -0.0447 -0.9582
vn 0.9995 0.0322 -0.0000
vn -1.0000 -0.0000 -0.0000
vn -1.0000 0.0068 -0.0037
vn 0.0702 -0.1136 -0.9910
vn 0.9990 0.0431 -0.0099
vn 0.0269 0.1200 0.9924
vn -0.5297 0.6283 -0.5697
vn -0.5562 0.8121 0.1763
vn -0.4931 0.5578 -0.6677
vn -0.5345 0.8005 0.2710
vn 0.9990 0.0439 0.0095
vn 0.9991 0.0422 -0.0079
vn 0.9989 0.0459 0.0128
vn -0.9999 0.0022 -0.0116
vn -1.0000 0.0049 -0.0032
vn -1.0000 0.0051 -0.0084
vn 0.7878 0.5807 0.2053
vn -0.6781 0.6966 0.2343
vn 0.6169 0.7430 0.2598
vn 0.7737 0.4188 -0.4754
vn -0.6384 0.4912 -0.5926
vn 0.5991 0.5251 -0.6044
vn 0.8054 0.5770 0.1355
vn -0.6988 0.6994 0.1499
vn 0.6401 0.7487 0.1724
vn 0.8001 0.4558 -0.3899
vn -0.6745 0.5448 -0.4983
vn 0.6328 0.5845 -0.5078
vn -0.0687 0.1159 0.9909
vn 0.0413 0.1207 0.9918
vn -0.0414 0.1189 0.9920
vn -0.0277 -0.1176 -0.9927
vn 0.0422 -0.1167 -0.9923
vn -0.0426 -0.1183 -0.9921
vn -0.9998 0.0177 -0.0129
vn -0.9899 -0.0000 -0.1417
vn 0.8860 -0.0000 -0.4637
vn 0.9973 -0.0000 0.0734
vn 0.2942 -0.0000 0.9558
vn -0.9745 -0.0000 -0.2245
vn -0.2616 -0.0000 -0.9652
vn 0.9745 -0.0000 0.2245
vn -0.9248 -0.0000 0.3803
vn -0.6612 -0.0000 -0.7502
vn 1.0000 -0.0000 -0.0000
vn 0.7928 -0.0000 0.6095
vn -0.9841 -0.0000 -0.1774
vn -0.5464 -0.0000 -0.8375
vn 0.9841 -0.0000 0.1774
vn 0.0964 -0.0000 0.9953
vn -0.2997 -0.0000 0.9540
vn -0.6916 -0.0000 -0.7222
vn -0.0908 -0.9959 0.0048
vn 0.0895 -0.9959 0.0116
vn -0.0895 0.9959 -0.0116
vn 0.0908 0.9959 -0.0048
vn -0.4707 -0.0000 0.8823
vn 0.5110 -0.0000 0.8596
vn -0.5258 -0.0000 0.8506
vn -0.3924 -0.0000 -0.9198
vn -0.3209 -0.0000 -0.9471
vn 0.7735 -0.0000 -0.6339
vn 0.3498 -0.0000 0.9368
vn -0.9380 -0.0000 0.3467
vn 0.6778 -0.0000 0.7353
vn -0.6081 -0.0000 -0.7939
vn 0.7628 -0.0000 -0.6466
vn 0.8479 -0.0000 -0.5302
vn -0.4380 -0.0000 0.8990
vn 0.3400 -0.0000 0.9404
vn -0.9999 -0.0000 -0.0125
vn -0.4392 -0.0000 -0.8984
vn 0.9881 -0.0000 -0.1536
vn 0.7345 -0.0000 -0.6786
vn 0.1069 0.9942 -0.0149
vt 0.020317 0.005278
vt 0.020317 0.397359
vt 0.031298 0.397359
vt 0.031298 0.005278
vt 0.020317 0.482264
vt 0.020317 0.497492
vt 0.031298 0.497492
vt 0.031298 0.482264
vt 0.020317 0.889573
vt 0.031298 0.889573
vt 0.019931 0.965197
vt 0.020317 0.994722
vt 0.031298 0.994722
vt 0.031684 0.965197
vt 0.836125 0.048768
vt 0.824487 0.922094
vt 0.899174 0.951606
vt 0.899174 0.066257
vt 0.943837 0.974911
vt 0.944967 0.908090
vt 0.940118 0.907243
vt 0.940118 0.972610
vt 0.954996 0.972610
vt 0.954996 0.907243
vt 0.952406 0.909422
vt 0.952810 0.973902
vt 0.947557 0.906033
vt 0.947557 0.972610
vt 0.470040 0.066257
vt 0.470037 0.951606
vt 0.609913 0.940133
vt 0.577332 0.035101
vt 0.684623 0.968002
vt 0.684623 0.066257
vt 0.020317 0.909872
vt 0.031298 0.909872
vt 0.020317 0.945359
vt 0.031298 0.945359
vt 0.019931 0.423590
vt 0.031684 0.423590
vt 0.020317 0.449820
vt 0.031298 0.449820
vt 0.689266 0.262452
vt 0.726503 0.715510
vt 0.819822 0.740651
vt 0.823764 0.296702
vt 0.020105 0.290235
vt 0.020105 0.304587
vt 0.031361 0.304587
vt 0.031361 0.290235
vt 0.940118 0.956713
vt 0.942587 0.956793
vt 0.942385 0.924795
vt 0.940118 0.924029
vt 0.020105 0.210096
vt 0.020421 0.228123
vt 0.031361 0.228123
vt 0.031361 0.210096
vt 0.020712 0.250494
vt 0.031361 0.250494
vt 0.031361 0.500628
vt 0.020105 0.500628
vt 0.952244 0.922818
vt 0.952381 0.955596
vt 0.954688 0.956645
vt 0.954995 0.924029
vt 0.899180 0.724255
vt 0.890321 0.282493
vt 0.949009 0.924675
vt 0.947718 0.958125
vt 0.535406 0.713874
vt 0.541226 0.280487
vt 0.470031 0.724254
vt 0.470031 0.281580
vt 0.031361 0.789904
vt 0.031510 0.594258
vt 0.020254 0.594258
vt 0.020105 0.789904
vt 0.020105 0.515441
vt 0.031361 0.515441
vt 0.031361 0.547240
vt 0.020712 0.547240
vt 0.020570 0.579057
vt 0.031510 0.579057
vt 0.022415 0.303592
vt 0.018116 0.499633
vt 0.029200 0.499633
vt 0.033499 0.303592
vt 0.018456 0.569312
vt 0.018116 0.589840
vt 0.029200 0.589839
vt 0.029200 0.569312
vt 0.574988 0.727033
vt 0.577312 0.286984
vt 0.470037 0.285892
vt 0.470040 0.728673
vt 0.944201 0.956757
vt 0.943434 0.923702
vt 0.940118 0.924550
vt 0.940118 0.957241
vt 0.954995 0.957241
vt 0.954995 0.924550
vt 0.951276 0.924630
vt 0.951356 0.957120
vt 0.781400 0.722132
vt 0.803513 0.274429
vt 0.899166 0.728673
vt 0.899174 0.285891
vt 0.029200 0.521946
vt 0.018116 0.521946
vt 0.022414 0.785881
vt 0.033499 0.785881
vt 0.033499 0.281755
vt 0.022415 0.281755
vt 0.019999 0.294293
vt 0.019371 0.306672
vt 0.030627 0.306672
vt 0.030627 0.294293
vt 0.032244 0.502713
vt 0.020988 0.502713
vt 0.469998 0.730539
vt 0.541238 0.729456
vt 0.547049 0.296053
vt 0.469998 0.287850
vt 0.689251 0.711416
vt 0.651997 0.258343
vt 0.942587 0.923645
vt 0.942788 0.955644
vt 0.946427 0.958428
vt 0.947718 0.924977
vt 0.019371 0.206166
vt 0.019893 0.222588
vt 0.030627 0.222588
vt 0.030627 0.206166
vt 0.019675 0.250067
vt 0.030627 0.250067
vt 0.953132 0.955361
vt 0.952688 0.922515
vt 0.832610 0.744759
vt 0.899208 0.730538
vt 0.899212 0.287848
vt 0.845402 0.299883
vt 0.954995 0.956249
vt 0.954995 0.923564
vt 0.030627 0.793834
vt 0.032244 0.597793
vt 0.020988 0.597793
vt 0.019371 0.793834
vt 0.940118 0.956249
vt 0.940118 0.923564
vt 0.032244 0.582979
vt 0.021510 0.582979
vt 0.032244 0.551180
vt 0.021291 0.551180
vt 0.032244 0.517914
vt 0.021616 0.517914
vt 0.031157 0.642695
vt 0.031156 0.446654
vt 0.020072 0.446654
vt 0.020073 0.642695
vt 0.029670 0.378733
vt 0.031156 0.357305
vt 0.020072 0.357305
vt 0.020072 0.378733
vt 0.020072 0.417560
vt 0.031543 0.417560
vt 0.951102 0.916792
vt 0.944632 0.916994
vt 0.944713 0.949476
vt 0.951869 0.949839
vt 0.899396 0.726167
vt 0.899381 0.283492
vt 0.781615 0.276935
vt 0.759519 0.724533
vt 0.572684 0.721795
vt 0.575015 0.281853
vt 0.941074 0.916672
vt 0.941074 0.949355
vt 0.955951 0.949355
vt 0.955951 0.916672
vt 0.469824 0.283492
vt 0.469815 0.726167
vt 0.939227 0.916672
vt 0.939227 0.949355
vt 0.941074 0.960161
vt 0.939162 0.960161
vt 0.939226 0.964272
vt 0.941074 0.964272
vt 0.941074 0.952996
vt 0.939474 0.952996
vt 0.033499 0.214119
vt 0.022415 0.214119
vt 0.022755 0.238778
vt 0.033499 0.238778
vt 0.047911 0.402536
vt 0.056325 0.037476
vt 0.027330 0.037476
vt 0.018916 0.402536
vt 0.056767 0.880189
vt 0.050469 0.853170
vt 0.021474 0.853170
vt 0.027772 0.880189
vt 0.334737 0.877198
vt 0.329991 0.136174
vt 0.308605 0.093025
vt 0.308605 0.897514
vt 0.958603 0.920274
vt 0.956478 0.982301
vt 0.959100 0.978721
vt 0.962454 0.922535
vt 0.045610 0.513392
vt 0.016615 0.513392
vt 0.946757 0.921955
vt 0.946757 0.980898
vt 0.949851 0.977737
vt 0.950537 0.923444
vt 0.953288 0.978446
vt 0.956432 0.922795
vt 0.417128 0.889606
vt 0.393937 0.122738
vt 0.375813 0.073874
vt 0.390503 0.920467
vt 0.353755 0.126490
vt 0.375489 0.886059
vt 0.056323 0.959940
vt 0.050575 0.932890
vt 0.021580 0.932890
vt 0.027328 0.959940
vt 0.051062 0.910952
vt 0.022067 0.910952
vt 0.050095 0.650887
vt 0.050095 0.350130
vt 0.021579 0.346528
vt 0.021579 0.647286
vt 0.027673 0.373987
vt 0.028818 0.401037
vt 0.057471 0.398778
vt 0.056326 0.371727
vt 0.335739 0.843968
vt 0.337694 0.209911
vt 0.309251 0.187424
vt 0.308611 0.843971
vt 0.958530 0.925879
vt 0.958348 0.976696
vt 0.962268 0.974855
vt 0.962453 0.925878
vt 0.949189 0.975477
vt 0.950501 0.924362
vt 0.946610 0.924870
vt 0.946610 0.979738
vt 0.381043 0.198562
vt 0.388283 0.878542
vt 0.415182 0.885482
vt 0.418146 0.183262
vt 0.010247 0.572705
vt 0.032685 0.893612
vt 0.061427 0.893425
vt 0.038989 0.572518
vt 0.014203 0.706908
vt 0.042856 0.704649
vt 0.032686 0.103991
vt 0.012140 0.446427
vt 0.040882 0.446240
vt 0.061427 0.103804
vt 0.307586 0.108859
vt 0.307586 0.857735
vt 0.334485 0.864669
vt 0.325418 0.167013
vt 0.361384 0.871602
vt 0.354979 0.147843
vt 0.962601 0.974286
vt 0.962173 0.922837
vt 0.958282 0.923345
vt 0.957235 0.973166
vt 0.954392 0.923854
vt 0.953465 0.976882
vt 0.946758 0.925878
vt 0.946851 0.973981
vt 0.950965 0.972334
vt 0.950682 0.925879
vt 0.955576 0.973977
vt 0.954606 0.925879
vt 0.417121 0.843971
vt 0.415838 0.175502
vt 0.388740 0.150370
vt 0.389994 0.843965
vt 0.369573 0.187483
vt 0.362866 0.843965
vt 0.014203 0.292767
vt 0.015732 0.320433
vt 0.044385 0.318173
vt 0.042856 0.290507
vt 0.021754 0.350440
vt 0.050407 0.348180
vt 0.041916 0.538366
vt 0.013174 0.538553
vt 0.040498 0.505300
vt 0.011756 0.505486
vt 0.043212 0.477293
vt 0.014470 0.477479
vt 0.019808 0.427920
vt 0.048803 0.427920
vt 0.018014 0.464953
vt 0.047009 0.464953
vt 0.014907 0.485523
vt 0.043902 0.485523
vt 0.088790 0.498473
vt 0.088762 0.284037
vt 0.198585 0.284037
vt 0.198613 0.498473
vt 0.088956 0.069605
vt 0.198779 0.069605
vt 0.088956 0.927341
vt 0.088984 0.712905
vt 0.198807 0.712905
vt 0.198779 0.927341
vt 0.175691 0.943253
vt 0.143859 0.942900
vt 0.143784 0.053337
vt 0.175912 0.053693
vt 0.111731 0.943019
vt 0.079898 0.943609
vt 0.079529 0.054051
vt 0.111656 0.053456
vt 0.207819 0.943609
vt 0.208041 0.054049
vt 0.115786 0.924021
vt 0.083674 0.930920
vt 0.079537 0.072918
vt 0.111648 0.066020
vt 0.175904 0.930925
vt 0.143776 0.930925
vt 0.143776 0.066020
vt 0.175904 0.066020
vt 0.203895 0.924021
vt 0.208032 0.066020
vt 0.097426 0.229045
vt 0.179726 0.277566
vt 0.181848 0.334850
vt 0.097610 0.282640
vt 0.095555 0.442881
vt 0.188685 0.484347
vt 0.178662 0.521480
vt 0.094860 0.496288
vt 0.091133 0.655180
vt 0.173817 0.664677
vt 0.180469 0.733645
vt 0.089890 0.708144
vt 0.089895 0.868971
vt 0.187063 0.868007
vt 0.181250 0.921374
vt 0.089890 0.922580
vt 0.170775 0.279474
vt 0.177046 0.276324
vt 0.177197 0.321738
vt 0.171942 0.337585
vt 0.175109 0.167612
vt 0.180273 0.195970
vt 0.178134 0.231382
vt 0.171990 0.210462
vt 0.175987 0.241985
vt 0.171044 0.230981
vt 0.175432 0.576408
vt 0.093618 0.549253
vt 0.178758 0.602179
vt 0.092375 0.602216
vt 0.096874 0.068260
vt 0.187821 0.126154
vt 0.179864 0.188663
vt 0.097058 0.121855
vt 0.183533 0.254949
vt 0.097242 0.175450
vt 0.143169 0.221034
vt 0.155226 0.208219
vt 0.154568 0.293267
vt 0.138646 0.304968
vt 0.165101 0.229537
vt 0.165249 0.282038
vt 0.138646 0.181656
vt 0.155446 0.172772
vt 0.166278 0.203504
vt 0.141976 0.097544
vt 0.159015 0.085791
vt 0.169270 0.153971
vt 0.159725 0.389008
vt 0.145858 0.405193
vt 0.166990 0.336474
vt 0.189981 0.776353
vt 0.089897 0.761753
vt 0.181671 0.828727
vt 0.089896 0.815362
vt 0.186954 0.391346
vt 0.096928 0.336055
vt 0.181079 0.427408
vt 0.096241 0.389468
vt 0.947369 0.383689
vt 0.947370 0.075012
vt 0.930040 0.075012
vt 0.930039 0.383689
vt 0.947368 0.867174
vt 0.947368 0.773104
vt 0.930038 0.773104
vt 0.930037 0.867174
vt 0.947369 0.496165
vt 0.930039 0.496165
vt 0.947369 0.414564
vt 0.930039 0.414564
vt 0.271175 0.732230
vt 0.275353 0.385248
vt 0.223692 0.371782
vt 0.235898 0.654210
vt 0.938546 0.905464
vt 0.939544 0.957447
vt 0.943820 0.959464
vt 0.943820 0.912192
vt 0.947369 0.344992
vt 0.947370 0.036315
vt 0.930040 0.036315
vt 0.930039 0.344992
vt 0.947368 0.860642
vt 0.947368 0.820572
vt 0.930038 0.820572
vt 0.930038 0.860642
vt 0.947369 0.511895
vt 0.930039 0.511895
vt 0.947369 0.372770
vt 0.930039 0.372770
vt 0.270598 0.411098
vt 0.264288 0.737820
vt 0.293265 0.707321
vt 0.293265 0.391781
vt 0.940651 0.904626
vt 0.941360 0.959203
vt 0.943820 0.955733
vt 0.943820 0.908460
vt 0.944914 0.936846
vt 0.944914 0.639735
vt 0.927583 0.639735
vt 0.927584 0.936846
vt 0.944914 0.538854
vt 0.944914 0.502712
vt 0.927583 0.502712
vt 0.927583 0.538854
vt 0.944913 0.194035
vt 0.927583 0.194035
vt 0.944913 0.087036
vt 0.944913 0.061158
vt 0.927583 0.061158
vt 0.927583 0.087036
vt 0.275823 0.423381
vt 0.268853 0.693540
vt 0.293545 0.714442
vt 0.293189 0.398902
vt 0.939683 0.909531
vt 0.941468 0.953660
vt 0.943887 0.956800
vt 0.943837 0.911298
vt 0.930039 0.650864
vt 0.930039 0.959541
vt 0.947369 0.959541
vt 0.947369 0.650864
vt 0.930039 0.161568
vt 0.930039 0.201217
vt 0.947369 0.201217
vt 0.947369 0.161568
vt 0.930039 0.509894
vt 0.947369 0.509894
vt 0.930039 0.621223
vt 0.947369 0.621223
vt 0.274767 0.427683
vt 0.274965 0.707179
vt 0.293265 0.715405
vt 0.293265 0.399864
vt 0.933496 0.959870
vt 0.931579 0.909217
vt 0.927211 0.907984
vt 0.927211 0.955257
vt 0.930124 0.917153
vt 0.927211 0.959464
vt 0.293265 0.687323
vt 0.293265 0.371782
vt 0.947367 0.922993
vt 0.930037 0.922992
vt 0.927229 0.909527
vt 0.927144 0.956800
vt 0.933039 0.953668
vt 0.931375 0.913194
vt 0.937335 0.956190
vt 0.935529 0.908129
vt 0.223620 0.410724
vt 0.223412 0.714442
vt 0.233544 0.693486
vt 0.241022 0.398932
vt 0.250855 0.710371
vt 0.258422 0.389570
vt 0.944913 0.150449
vt 0.927583 0.150449
vt 0.949825 0.118292
vt 0.932494 0.118292
vt 0.944914 0.610258
vt 0.927583 0.610258
vt 0.944914 0.581630
vt 0.927583 0.581630
vt 0.927211 0.908460
vt 0.927211 0.955733
vt 0.934128 0.960302
vt 0.932622 0.911354
vt 0.938037 0.954342
vt 0.935515 0.908460
vt 0.223692 0.391781
vt 0.223692 0.707321
vt 0.233996 0.730488
vt 0.236965 0.366192
vt 0.247916 0.698039
vt 0.258479 0.391781
vt 0.947369 0.457760
vt 0.930039 0.457760
vt 0.947369 0.411222
vt 0.930039 0.411222
vt 0.947368 0.961689
vt 0.947368 0.929212
vt 0.930038 0.929212
vt 0.930038 0.961689
vt 0.947368 0.887363
vt 0.930038 0.887363
vt 0.943820 0.955257
vt 0.943820 0.907984
vt 0.939451 0.909217
vt 0.939404 0.951090
vt 0.932276 0.905058
vt 0.935515 0.954025
vt 0.223692 0.399865
vt 0.223692 0.715405
vt 0.241992 0.707179
vt 0.250022 0.369074
vt 0.244909 0.734938
vt 0.258479 0.408090
vt 0.930039 0.539535
vt 0.947369 0.539535
vt 0.930039 0.593689
vt 0.947369 0.593689
vt 0.930039 0.038464
vt 0.930039 0.089375
vt 0.947369 0.089375
vt 0.947369 0.038464
vt 0.930039 0.129755
vt 0.947369 0.129755
s 0
usemtl Madera
f 1/1/1 3/2/1 4/3/1 2/4/1
f 9/5/2 7/6/2 8/7/2 14/8/2
f 7/6/3 5/9/3 6/10/3 8/7/3
f 15/11/4 1/12/4 2/13/4 20/14/4
f 9/15/5 17/16/5 5/17/5 7/18/5
f 12/19/6 20/20/6 2/21/6 4/22/6
f 8/23/7 6/24/7 18/25/7 14/26/7
f 14/26/7 18/25/7 19/27/7 13/28/7
f 13/28/8 19/27/8 20/20/8 12/19/8
f 3/29/9 1/30/9 15/31/9 11/32/9
f 11/32/10 15/31/10 16/33/10 10/34/10
f 10/34/5 16/33/5 17/16/5 9/15/5
f 5/9/11 17/35/11 18/36/11 6/10/11
f 17/35/12 16/37/12 19/38/12 18/36/12
f 16/37/13 15/11/13 20/14/13 19/38/13
f 3/2/14 11/39/14 12/40/14 4/3/14
f 11/39/15 10/41/15 13/42/15 12/40/15
f 10/41/16 9/5/16 14/8/16 13/42/16
f 31/43/17 26/44/17 27/45/17 32/46/17
f 25/47/18 21/48/18 22/49/18 30/50/18
f 36/51/19 40/52/19 30/53/19 22/54/19
f 23/55/20 27/56/20 28/57/20 24/58/20
f 27/56/21 26/59/21 29/60/21 28/57/21
f 26/59/22 25/47/22 30/50/22 29/60/22
f 36/61/23 22/49/23 21/48/23 35/62/23
f 28/63/24 33/64/24 38/65/24 24/66/24
f 27/45/25 23/67/25 37/68/25 32/46/25
f 29/69/26 34/70/26 33/64/26 28/63/26
f 30/53/19 40/52/19 34/70/19 29/69/19
f 25/71/27 26/44/27 31/43/27 39/72/27
f 21/73/28 25/71/28 39/72/28 35/74/28
f 24/75/29 38/76/29 37/77/29 23/78/29
f 36/61/30 35/62/30 39/79/30 40/80/30
f 34/81/31 40/80/31 39/79/31 31/82/31
f 34/81/32 31/82/32 32/83/32 33/84/32
f 38/76/33 33/84/33 32/83/33 37/77/33
f 51/85/3 43/86/3 44/87/3 52/88/3
f 45/89/34 41/90/34 42/91/34 48/92/34
f 56/93/35 46/94/35 43/95/35 51/96/35
f 54/97/36 48/98/36 42/99/36 50/100/36
f 52/101/37 44/102/37 47/103/37 53/104/37
f 56/93/38 55/105/38 45/106/38 46/94/38
f 49/107/39 41/108/39 45/106/39 55/105/39
f 47/109/40 46/110/40 45/89/40 48/92/40
f 43/86/41 46/110/41 47/109/41 44/87/41
f 54/97/42 53/104/42 47/103/42 48/98/42
f 41/90/1 49/111/1 50/112/1 42/91/1
f 53/113/43 56/114/43 51/85/43 52/88/43
f 61/115/44 59/116/44 60/117/44 66/118/44
f 74/119/45 60/117/45 59/116/45 73/120/45
f 71/121/46 75/122/46 63/123/46 57/124/46
f 75/122/47 67/125/47 62/126/47 63/123/47
f 76/127/48 64/128/48 65/129/48 70/130/48
f 57/131/49 63/132/49 64/133/49 58/134/49
f 63/132/50 62/135/50 65/136/50 64/133/50
f 62/135/51 61/115/51 66/118/51 65/136/51
f 70/130/52 65/129/52 66/137/52 69/138/52
f 68/139/53 73/140/53 59/141/53 61/142/53
f 69/138/54 66/137/54 60/143/54 74/144/54
f 58/145/55 72/146/55 71/147/55 57/148/55
f 58/149/56 64/128/56 76/127/56 72/150/56
f 62/126/57 67/125/57 68/139/57 61/142/57
f 71/147/58 72/146/58 76/151/58 75/152/58
f 70/153/59 67/154/59 75/152/59 76/151/59
f 70/153/60 69/155/60 68/156/60 67/154/60
f 74/119/61 73/120/61 68/156/61 69/155/61
f 85/157/62 77/158/62 78/159/62 86/160/62
f 81/161/63 79/162/63 80/163/63 84/164/63
f 83/165/64 82/166/64 81/161/64 84/164/64
f 77/158/65 82/166/65 83/165/65 78/159/65
f 83/167/66 84/168/66 89/169/66 90/170/66
f 77/171/67 85/172/67 91/173/67 82/174/67
f 81/175/68 82/174/68 91/173/68 92/176/68
f 80/177/66 88/178/66 89/169/66 84/168/66
f 83/167/66 90/170/66 86/179/66 78/180/66
f 81/175/69 92/176/69 87/181/69 79/182/69
f 79/183/70 87/184/70 88/178/70 80/177/70
f 90/185/71 91/186/71 85/187/71 86/188/71
f 89/189/72 92/190/72 91/186/72 90/185/72
f 88/178/73 87/184/73 92/190/73 89/189/73
f 50/191/74 49/192/74 55/193/74 54/194/74
f 54/194/75 55/193/75 56/114/75 53/113/75
f 99/195/76 95/196/76 96/197/76 100/198/76
f 101/199/77 93/200/77 94/201/77 106/202/77
f 110/203/78 103/204/78 95/205/78 99/206/78
f 107/207/79 106/208/79 94/209/79 98/210/79
f 93/200/80 97/211/80 98/212/80 94/201/80
f 100/213/81 96/214/81 104/215/81 109/216/81
f 109/216/82 104/215/82 105/217/82 108/218/82
f 108/218/83 105/217/83 106/208/83 107/207/83
f 97/219/84 93/220/84 101/221/84 112/222/84
f 112/222/85 101/221/85 102/223/85 111/224/85
f 111/224/86 102/223/86 103/204/86 110/203/86
f 95/225/87 103/226/87 104/227/87 96/228/87
f 103/226/88 102/229/88 105/230/88 104/227/88
f 102/229/89 101/199/89 106/202/89 105/230/89
f 121/231/90 115/232/90 116/233/90 124/234/90
f 125/235/91 113/236/91 114/237/91 130/238/91
f 140/239/92 127/240/92 115/241/92 121/242/92
f 134/243/93 130/244/93 114/245/93 119/246/93
f 131/247/94 134/248/94 119/249/94 120/250/94
f 137/251/95 140/252/95 121/253/95 122/254/95
f 122/255/96 121/256/96 124/257/96 123/258/96
f 113/236/97 118/259/97 119/260/97 114/237/97
f 118/261/98 117/262/98 120/263/98 119/264/98
f 117/265/99 118/266/99 142/267/99 139/268/99
f 139/268/100 142/267/100 141/269/100 138/270/100
f 138/270/101 141/269/101 140/252/101 137/251/101
f 123/271/102 124/272/102 136/273/102 133/274/102
f 133/274/103 136/273/103 135/275/103 132/276/103
f 132/276/104 135/275/104 134/248/104 131/247/104
f 124/277/105 116/278/105 128/279/105 136/280/105
f 136/280/106 128/279/106 129/281/106 135/282/106
f 135/282/107 129/281/107 130/244/107 134/243/107
f 118/283/108 113/284/108 125/285/108 142/286/108
f 142/286/109 125/285/109 126/287/109 141/288/109
f 141/288/110 126/287/110 127/240/110 140/239/110
f 115/289/111 127/290/111 128/291/111 116/292/111
f 127/290/112 126/293/112 129/294/112 128/291/112
f 126/293/113 125/235/113 130/238/113 129/294/113
f 133/295/114 137/296/114 122/255/114 123/258/114
f 132/297/115 138/298/115 137/296/115 133/295/115
f 131/299/116 139/300/116 138/298/116 132/297/116
f 139/300/117 131/299/117 120/263/117 117/262/117
f 109/301/118 110/302/118 99/195/118 100/198/118
f 108/303/119 111/304/119 110/302/119 109/301/119
f 107/305/120 112/306/120 111/304/120 108/303/120
f 112/306/121 107/305/121 98/212/121 97/211/121
f 146/307/122 150/308/122 149/309/122 145/310/122
f 150/308/123 148/311/123 147/312/123 149/309/123
f 148/313/124 144/314/124 143/315/124 147/316/124
f 158/317/125 156/318/125 155/319/125 157/320/125
f 152/321/126 154/322/126 153/323/126 151/324/126
f 156/318/127 152/321/127 151/324/127 155/319/127
f 154/325/128 158/317/128 157/320/128 153/326/128
f 166/327/129 164/328/129 163/329/129 165/330/129
f 160/331/130 162/332/130 161/333/130 159/334/130
f 164/335/1 160/331/1 159/334/1 163/336/1
f 162/332/3 166/327/3 165/330/3 161/333/3
f 175/337/131 180/338/131 170/339/131 169/340/131
f 187/341/132 192/342/132 174/343/132 173/344/132
f 181/345/133 186/346/133 172/347/133 171/348/133
f 193/349/134 198/350/134 168/351/134 167/352/134
f 205/353/135 178/354/135 168/355/135 198/356/135
f 190/357/136 170/358/136 180/359/136 199/360/136
f 199/360/137 180/359/137 179/361/137 202/362/137
f 202/362/138 179/361/138 178/354/138 205/353/138
f 173/344/139 174/343/139 184/363/139 183/364/139
f 183/364/140 184/363/140 185/365/140 182/366/140
f 182/366/141 185/365/141 186/346/141 181/345/141
f 167/367/142 168/368/142 178/369/142 177/370/142
f 177/370/143 178/369/143 179/371/143 176/372/143
f 176/372/144 179/371/144 180/338/144 175/337/144
f 185/373/145 204/374/145 207/375/145 186/376/145
f 204/374/146 203/377/146 206/378/146 207/375/146
f 203/377/147 202/362/147 205/353/147 206/378/147
f 184/379/148 201/380/148 204/374/148 185/373/148
f 201/380/149 200/381/149 203/377/149 204/374/149
f 200/381/150 199/360/150 202/362/150 203/377/150
f 174/382/151 192/383/151 201/380/151 184/379/151
f 192/383/152 191/384/152 200/381/152 201/380/152
f 191/384/153 190/357/153 199/360/153 200/381/153
f 186/376/154 207/375/154 196/385/154 172/386/154
f 207/375/155 206/378/155 197/387/155 196/385/155
f 206/378/156 205/353/156 198/356/156 197/387/156
f 171/348/157 172/347/157 196/388/157 195/389/157
f 195/389/158 196/388/158 197/390/158 194/391/158
f 194/391/159 197/390/159 198/350/159 193/349/159
f 169/340/160 170/339/160 190/392/160 189/393/160
f 189/393/161 190/392/161 191/394/161 188/395/161
f 188/395/162 191/394/162 192/342/162 187/341/162
f 144/314/163 146/307/163 145/310/163 143/315/163
f 208/396/164 210/397/164 211/398/164 209/399/164
f 240/400/165 214/401/165 215/402/165 241/403/165
f 214/401/166 212/404/166 213/405/166 215/402/166
f 242/406/167 208/396/167 209/399/167 243/407/167
f 240/408/5 242/409/5 212/410/5 214/411/5
f 241/412/7 243/413/7 209/414/7 211/415/7
f 216/416/168 218/417/168 219/418/168 217/419/168
f 256/420/169 222/421/169 223/422/169 261/423/169
f 222/421/170 220/424/170 221/425/170 223/422/170
f 262/426/171 216/416/171 217/419/171 267/427/171
f 256/428/5 264/429/5 220/430/5 222/431/5
f 259/432/7 267/433/7 217/434/7 219/435/7
f 224/436/130 226/437/130 227/438/130 225/439/130
f 244/440/172 230/441/172 231/442/172 249/443/172
f 230/441/173 228/444/173 229/445/173 231/442/173
f 250/446/174 224/447/174 225/448/174 255/449/174
f 244/450/5 252/451/5 228/452/5 230/453/5
f 247/454/7 255/455/7 225/456/7 227/457/7
f 232/458/175 234/459/175 235/460/175 233/461/175
f 268/462/176 238/463/176 239/464/176 273/465/176
f 238/463/177 236/466/177 237/467/177 239/464/177
f 274/468/178 232/458/178 233/461/178 279/469/178
f 268/470/5 276/471/5 236/472/5 238/473/5
f 271/474/7 279/475/7 233/476/7 235/477/7
f 215/478/7 213/479/7 243/413/7 241/412/7
f 210/480/5 208/481/5 242/409/5 240/408/5
f 212/404/179 242/406/179 243/407/179 213/405/179
f 210/482/180 240/400/180 241/403/180 211/483/180
f 231/484/7 229/485/7 253/486/7 249/487/7
f 249/487/181 253/486/181 254/488/181 248/489/181
f 248/489/182 254/488/182 255/455/182 247/454/182
f 226/490/5 224/491/5 250/492/5 246/493/5
f 246/493/183 250/492/183 251/494/183 245/495/183
f 245/495/184 251/494/184 252/451/184 244/450/184
f 228/444/185 252/496/185 253/497/185 229/445/185
f 252/496/186 251/498/186 254/499/186 253/497/186
f 251/498/187 250/446/187 255/449/187 254/499/187
f 226/437/188 246/500/188 247/501/188 227/438/188
f 246/500/189 245/502/189 248/503/189 247/501/189
f 245/502/190 244/440/190 249/443/190 248/503/190
f 223/504/7 221/505/7 265/506/7 261/507/7
f 261/507/7 265/506/7 266/508/7 260/509/7
f 260/509/7 266/508/7 267/433/7 259/432/7
f 218/510/5 216/511/5 262/512/5 258/513/5
f 258/513/5 262/512/5 263/514/5 257/515/5
f 257/515/5 263/514/5 264/429/5 256/428/5
f 220/424/191 264/516/191 265/517/191 221/425/191
f 264/516/192 263/518/192 266/519/192 265/517/192
f 263/518/193 262/426/193 267/427/193 266/519/193
f 218/520/194 258/521/194 259/522/194 219/523/194
f 258/521/195 257/524/195 260/525/195 259/522/195
f 257/524/196 256/420/196 261/423/196 260/525/196
f 239/526/7 237/527/7 277/528/7 273/529/7
f 273/529/7 277/528/7 278/530/7 272/531/7
f 272/531/7 278/530/7 279/475/7 271/474/7
f 234/532/5 232/533/5 274/534/5 270/535/5
f 270/535/5 274/534/5 275/536/5 269/537/5
f 269/537/5 275/536/5 276/471/5 268/470/5
f 236/466/197 276/538/197 277/539/197 237/467/197
f 276/538/198 275/540/198 278/541/198 277/539/198
f 275/540/199 274/468/199 279/469/199 278/541/199
f 234/542/200 270/543/200 271/544/200 235/545/200
f 270/543/201 269/546/201 272/547/201 271/544/201
f 269/546/202 268/462/202 273/465/202 272/547/202
f 152/321/203 156/318/203 158/317/203 154/325/203
